<?xml version="1.0" encoding="UTF-8" standalone="no"?>
<svg
   xml:space="preserve"
   id="Layer_1"
   x="0px"
   y="0px"
   width="400"
   height="400"
   viewBox="19 19 294.44445 294.44445"
   version="1.1"
   sodipodi:docname="Rusty Labs 1.svg"
   inkscape:version="1.1 (c68e22c387, 2021-05-23)"
   inkscape:export-filename="E:\MEGAsync\Other stuff\Rusty Labs\Logo\Rusty Labs.png"
   inkscape:export-xdpi="96"
   inkscape:export-ydpi="96"
   xmlns:inkscape="http://www.inkscape.org/namespaces/inkscape"
   xmlns:sodipodi="http://sodipodi.sourceforge.net/DTD/sodipodi-0.dtd"
   xmlns="http://www.w3.org/2000/svg"
   xmlns:svg="http://www.w3.org/2000/svg"
   xmlns:rdf="http://www.w3.org/1999/02/22-rdf-syntax-ns#"
   xmlns:cc="http://creativecommons.org/ns#"
   xmlns:dc="http://purl.org/dc/elements/1.1/"><metadata
     id="metadata8"><rdf:RDF><cc:Work
         rdf:about=""><dc:format>image/svg+xml</dc:format><dc:type
           rdf:resource="http://purl.org/dc/dcmitype/StillImage" /></cc:Work></rdf:RDF></metadata><defs
     id="defs6" /><sodipodi:namedview
     pagecolor="#ffffff"
     bordercolor="#666666"
     borderopacity="1"
     objecttolerance="10"
     gridtolerance="10"
     guidetolerance="10"
     inkscape:pageopacity="0"
     inkscape:pageshadow="2"
     inkscape:window-width="1920"
     inkscape:window-height="1017"
     id="namedview4"
     showgrid="false"
     inkscape:zoom="1.1588695"
     inkscape:cx="131.16231"
     inkscape:cy="157.48107"
     inkscape:window-x="1912"
     inkscape:window-y="-8"
     inkscape:window-maximized="1"
     inkscape:current-layer="Layer_1"
     inkscape:pagecheckerboard="0" /><rect
     style="fill:#212a58;fill-opacity:1;stroke-width:9.36352"
     id="rect865"
     width="294.44446"
     height="294.44446"
     x="19"
     y="19"
     rx="0"
     ry="0" /><path
     style="fill:#59b285;fill-opacity:1;stroke:none;stroke-width:2.81324"
     inkscape:connector-curvature="0"
     d="m 166.23034,19 c -1.47413,0 -2.84513,0.762344 -3.61597,2.014208 l -7.65252,12.364219 c -1.20406,0.09848 -2.40816,0.21972 -3.60382,0.35188 l -9.90945,-10.633131 c -1.00433,-1.074636 -2.49633,-1.55414 -3.93951,-1.270008 -1.44885,0.28976 -2.64003,1.301516 -3.15487,2.685596 l -5.08009,13.581667 c -1.17596,0.3376 -2.34082,0.698004 -3.50272,1.063716 L 114.0014,30.684763 c -1.19563,-0.863648 -2.75182,-1.04552 -4.11346,-0.477256 -1.35879,0.562636 -2.33608,1.796184 -2.57239,3.247784 l -2.33379,14.321812 c -1.08028,0.55982 -2.14929,1.135032 -3.21551,1.722984 L 88.560381,43.481775 c -1.341944,-0.613272 -2.908656,-0.4898 -4.129632,0.33168 -1.226572,0.81582 -1.941064,2.217344 -1.8848,3.688636 l 0.505584,14.532111 c -0.939628,0.751144 -1.870904,1.516836 -2.79084,2.293272 L 66.108362,60.99071 c -1.437564,-0.33476 -2.947144,0.09564 -3.988044,1.136524 -1.046532,1.043688 -1.470112,2.546372 -1.132504,3.983908 l 3.3328,14.155987 c -0.773652,0.917096 -1.538132,1.847104 -2.28928,2.786704 L 47.498799,82.548237 c -1.465692,-0.0422 -2.870088,0.658228 -3.688748,1.884772 -0.821476,1.22092 -0.942136,2.784792 -0.33164,4.129492 l 6.018484,13.209549 c -0.585168,1.0606 -1.163192,2.12955 -1.723044,3.21543 l -14.322192,2.32968 c -1.454468,0.23632 -2.678368,1.21076 -3.243844,2.57234 -0.562664,1.36442 -0.38076,2.91774 0.47728,4.11334 l 8.469548,11.76563 c -0.36852,1.16188 -0.726164,2.33075 -1.063744,3.50666 l -13.582015,5.07592 c -1.378512,0.51482 -2.394688,1.71002 -2.681632,3.15882 -0.28696,1.44597 0.19664,2.93228 1.27406,3.9394 l 10.625363,9.90919 c -0.13224,1.1956 -0.25064,2.39843 -0.35188,3.59966 l -12.360531,7.65232 C 19.762372,163.38406 19,164.74935 19,166.2263 c 0,1.47692 0.762372,2.84502 2.014264,3.61583 l 12.360531,7.65232 c 0.10128,1.20404 0.21972,2.40405 0.35188,3.59968 l -10.625363,9.91321 c -1.077476,1.00431 -1.561004,2.49625 -1.27406,3.93941 0.28696,1.44879 1.30312,2.63715 2.681632,3.15478 l 13.582015,5.07591 c 0.3376,1.17591 0.69522,2.34479 1.063744,3.50663 l -8.469548,11.76968 c -0.86086,1.19842 -1.04276,2.75053 -0.47728,4.1093 0.565476,1.36439 1.793428,2.33882 3.247868,2.57231 l 14.318168,2.3297 c 0.559852,1.08589 1.132248,2.15327 1.723044,3.21946 l -6.018484,13.20553 c -0.6133,1.34186 -0.489828,2.90294 0.33164,4.12949 0.821476,1.22936 2.223056,1.94382 3.688748,1.88477 l 14.524435,-0.50558 c 0.756772,0.94522 1.520916,1.87084 2.29738,2.79075 l -3.3328,14.15596 c -0.3376,1.43475 0.08608,2.93614 1.132504,3.97983 1.038088,1.04935 2.55048,1.46606 3.988044,1.12848 l 14.152331,-3.33274 c 0.919936,0.78209 1.851212,1.54094 2.79084,2.28922 l -0.505584,14.53616 c -0.05628,1.47132 0.658228,2.86722 1.8848,3.68867 1.220976,0.81863 2.787688,0.94089 4.129632,0.3276 l 13.205869,-6.0143 c 1.06341,0.59083 2.13241,1.1632 3.21551,1.72302 l 2.33379,14.31369 c 0.23632,1.45728 1.21079,2.68799 2.57239,3.24782 1.35882,0.56542 2.91783,0.3848 4.11346,-0.47324 l 11.76597,-8.47739 c 1.16187,0.36856 2.33078,0.73021 3.50674,1.06777 l 5.07607,13.57358 c 0.51481,1.37845 1.71004,2.4002 3.15889,2.68152 1.446,0.2926 2.93113,-0.1896 3.93546,-1.26996 l 9.9135,-10.62511 c 1.19566,0.13784 2.39976,0.2532 3.60382,0.35996 l 7.65252,12.3602 c 0.77084,1.24629 2.13779,2.01423 3.61195,2.01423 1.47413,0 2.84632,-0.76516 3.61997,-2.01423 l 7.65254,-12.3602 c 1.20407,-0.10688 2.40412,-0.22224 3.59975,-0.35996 l 9.90947,10.62511 c 1.00433,1.08023 2.4963,1.56255 3.93952,1.26996 1.44884,-0.28412 2.64003,-1.30307 3.15484,-2.68152 l 5.07609,-13.57358 c 1.17594,-0.33756 2.34484,-0.69922 3.50671,-1.06777 l 11.77,8.47739 c 1.19562,0.85805 2.75058,1.03866 4.1094,0.47324 1.3616,-0.55983 2.33609,-1.79338 2.5724,-3.24782 l 2.33378,-14.31369 c 1.08028,-0.55982 2.14929,-1.1406 3.21551,-1.72302 l 13.20587,6.0143 c 1.34194,0.6133 2.90587,0.49104 4.12964,-0.3276 1.2266,-0.82145 1.93831,-2.21454 1.88483,-3.68867 l -0.50558,-14.53616 c 0.93963,-0.75109 1.87368,-1.50713 2.79081,-2.28922 l 14.15233,3.33274 c 1.43754,0.3376 2.9459,-0.079 3.98396,-1.12848 1.04656,-1.04369 1.47014,-2.54508 1.13254,-3.97983 l -3.3328,-14.15596 c 0.77643,-0.91991 1.54091,-1.84553 2.28928,-2.79075 l 14.5325,0.50558 c 1.46572,0.0591 2.86606,-0.65541 3.68473,-1.88477 0.82147,-1.22655 0.94776,-2.78763 0.3316,-4.12949 l -6.01441,-13.20553 c 0.58799,-1.06619 1.16196,-2.13357 1.71902,-3.21946 l 14.3222,-2.3297 c 1.45725,-0.23348 2.68115,-1.20792 3.24381,-2.57231 0.56267,-1.35877 0.3864,-2.91088 -0.47725,-4.1093 l -8.46956,-11.76968 c 0.36572,-1.16184 0.72335,-2.33072 1.06375,-3.50663 l 13.57796,-5.07591 c 1.38136,-0.51763 2.40032,-1.70599 2.68164,-3.15478 0.2926,-1.44597 -0.1896,-2.9351 -1.27001,-3.93941 l -10.6254,-9.91321 c 0.1294,-1.19563 0.24784,-2.39845 0.35192,-3.59968 l 12.36054,-7.65232 c 1.25192,-0.77081 2.01423,-2.14173 2.01423,-3.61583 0,-1.47413 -0.75829,-2.84224 -2.01021,-3.61586 l -12.36051,-7.65232 c -0.10408,-1.20404 -0.22252,-2.40406 -0.35192,-3.59966 l 10.62135,-9.90919 c 1.08029,-1.00712 1.56665,-2.49624 1.27406,-3.9394 -0.28416,-1.4488 -1.30031,-2.644 -2.68163,-3.15882 l -13.58202,-5.07592 c -0.3404,-1.17591 -0.69804,-2.34478 -1.06375,-3.50666 l 8.4736,-11.76563 c 0.8637,-1.1956 1.03995,-2.74892 0.47725,-4.11334 -0.56263,-1.35876 -1.7934,-2.33322 -3.24784,-2.57234 l -14.31817,-2.32968 c -0.55703,-1.08588 -1.13787,-2.15483 -1.72304,-3.21543 l 6.01848,-13.209549 c 0.61612,-1.3447 0.48981,-2.908572 -0.33168,-4.129492 -0.81866,-1.226544 -2.20491,-1.941036 -3.6847,-1.884772 l -14.5325,0.505584 c -0.75115,-0.9396 -1.51813,-1.87242 -2.29738,-2.786704 l 3.34087,-14.155987 c 0.33764,-1.437536 -0.09,-2.94022 -1.13655,-3.983908 -1.03806,-1.040876 -2.54236,-1.474108 -3.97992,-1.136524 l -14.15638,3.336764 c -0.91712,-0.776436 -1.84837,-1.542128 -2.79081,-2.293272 l 0.50961,-14.532111 c 0.0563,-1.471292 -0.66225,-2.872816 -1.88885,-3.688636 -1.2294,-0.821476 -2.78366,-0.942136 -4.1256,-0.33168 l -13.20586,6.018312 c -1.06622,-0.58514 -2.13523,-1.163164 -3.21552,-1.722984 l -2.33378,-14.321812 c -0.23632,-1.4516 -1.21079,-2.685148 -2.57243,-3.247784 -1.35879,-0.565448 -2.91779,-0.38356 -4.11342,0.477256 l -11.77402,8.473384 c -1.15908,-0.36852 -2.3227,-0.726136 -3.49866,-1.063716 l -5.07607,-13.581667 c -0.51481,-1.38408 -1.71005,-2.398652 -3.15889,-2.685596 -1.44603,-0.28412 -2.93518,0.19524 -3.93952,1.270008 l -9.90542,10.633131 c -1.19563,-0.13224 -2.40254,-0.25348 -3.6038,-0.35188 L 169.85034,21.014208 C 169.07669,19.762344 167.7045,19 166.23034,19 Z m -0.26696,26.038947 c 2.2369,0.05204 4.45399,0.958812 6.12364,2.705796 3.33372,3.502431 3.20972,9.041183 -0.28716,12.380423 -3.48845,3.342056 -9.02526,3.212452 -12.36459,-0.28716 -3.33091,-3.49678 -3.20285,-9.034292 0.2912,-12.376375 1.74423,-1.671024 4.00003,-2.47472 6.23693,-2.422676 z m 20.09396,14.410775 c 31.56762,5.876756 58.29139,25.527583 73.69399,52.486338 l -10.31389,23.29268 c -1.7808,4.03129 0.0364,8.74567 4.05677,10.53203 l 19.85531,8.8212 c 3.35098,34.54488 -9.72934,65.0812 -30.35525,86.13712 l -18.49632,-3.97175 c -4.30712,-0.92273 -8.5418,1.81613 -9.46452,6.13157 l -4.38847,20.48164 c -13.54305,6.14682 -28.58404,9.56137 -44.42271,9.56137 -16.20162,0 -31.56802,-3.58568 -45.353,-9.99415 l -4.38443,-20.47759 c -0.92275,-4.30981 -5.16026,-7.05711 -9.46456,-6.13157 l -18.079699,3.88277 C 66.15025,216.49457 56.092354,184.62385 59.18789,153.71239 l 18.836075,-8.36819 c 4.022952,-1.78637 5.839168,-6.50077 4.052772,-10.53207 L 72.345229,112.82992 C 88.666773,83.568633 116.77339,64.95885 146.25769,59.474002 l 13.46474,14.127659 c 3.04394,3.187328 8.08385,3.30554 11.26848,0.2588 z M 61.299206,124.1911 c 3.40704,-0.0585 6.677468,1.8886 8.146004,5.20536 1.958028,4.4195 -0.0308,9.60017 -4.4451,11.55533 -4.414016,1.96081 -9.581456,-0.0348 -11.539484,-4.45712 -1.958028,-4.42234 0.0352,-9.59049 4.449152,-11.5513 1.1042,-0.48949 2.253776,-0.73275 3.389428,-0.75227 z m 208.919754,0.42467 c 1.13548,0.0196 2.28593,0.2622 3.38946,0.75228 4.41398,1.958 6.40312,7.13582 4.44507,11.55536 -1.95522,4.42231 -7.11858,6.41789 -11.53541,4.45708 -4.40838,-1.95797 -6.40031,-7.1342 -4.4451,-11.55935 1.4664,-3.31463 4.73948,-5.26444 8.14598,-5.20537 z m -169.3102,122.78898 c 4.06642,-0.0356 7.73708,2.78648 8.62326,6.92429 1.00996,4.72614 -1.99631,9.38586 -6.71415,10.3986 -4.720654,1.01834 -9.367122,-1.99314 -10.382705,-6.72206 -1.00996,-4.73744 1.993527,-9.38833 6.714179,-10.40667 0.590064,-0.12632 1.178526,-0.18904 1.759416,-0.19412 z m 129.70071,0.42468 c 0.58062,0.006 1.1697,0.0709 1.75942,0.19832 4.72066,1.0099 7.72696,5.67243 6.71416,10.39853 -1.01275,4.72614 -5.66484,7.73607 -10.38268,6.72614 -4.72065,-1.01837 -7.7229,-5.67206 -6.71013,-10.40667 0.88373,-4.13785 4.55473,-6.95763 8.61923,-6.91619 z"
     id="path3" /><g
     style="fill:#2a53cb;fill-opacity:1;stroke:none"
     transform="matrix(2.8132124,0,0,2.8131901,79.436049,-113.6853)"
     id="g822"><g
       style="fill:#2a53cb;fill-opacity:1;stroke:none"
       transform="matrix(1.2101409,0,0,1.2101409,-5.5054315,-21.143944)"
       id="g826"><path
         sodipodi:nodetypes="ccccc"
         inkscape:connector-curvature="0"
         id="rect815"
         d="m 32.25,105.68136 h -4.416667 l -9.569221,17.98481 h 23.555556 z"
         style="fill:#2a53cb;fill-opacity:1;stroke:none;stroke-width:0.508661" /><rect
         y="90.416229"
         x="27.833334"
         height="16.668728"
         width="4.4166665"
         id="rect818"
         style="fill:#2a53cb;fill-opacity:1;stroke:none;stroke-width:1.43004" /></g></g><ellipse
     cy="117.55068"
     cx="169.49832"
     id="path819"
     style="fill:#3b60c9;fill-opacity:1;stroke:none;stroke-width:0.548896;stroke-miterlimit:4;stroke-dasharray:none;stroke-opacity:1"
     rx="10.234162"
     ry="10.234161" /><ellipse
     style="fill:#6b87c3;fill-opacity:1;stroke:none;stroke-width:0.409124;stroke-miterlimit:4;stroke-dasharray:none;stroke-opacity:1"
     id="circle821"
     cx="186.79311"
     cy="95.517624"
     rx="7.6280999"
     ry="7.6280994" /><circle
     cy="91.64801"
     cx="209.61589"
     id="circle823"
     style="fill:#466fc5;fill-opacity:1;stroke:none;stroke-width:0.303236;stroke-miterlimit:4;stroke-dasharray:none;stroke-opacity:1"
     r="5.65381" /><ellipse
     cy="97.751282"
     cx="112.18908"
     id="circle825"
     style="fill:#3264d2;fill-opacity:1;stroke:none;stroke-width:0.409124;stroke-miterlimit:4;stroke-dasharray:none;stroke-opacity:1"
     rx="7.6280999"
     ry="7.6280994" /><ellipse
     style="fill:#336be0;fill-opacity:1;stroke:none;stroke-width:0.409124;stroke-miterlimit:4;stroke-dasharray:none;stroke-opacity:1"
     id="circle827"
     cx="141.22658"
     cy="91.050308"
     rx="7.6280999"
     ry="7.6280994" /><ellipse
     cy="111.59992"
     cx="136.75928"
     id="circle829"
     style="fill:#3659a3;fill-opacity:1;stroke:none;stroke-width:0.409124;stroke-miterlimit:4;stroke-dasharray:none;stroke-opacity:1"
     rx="7.6280999"
     ry="7.6280994" /><ellipse
     style="fill:#539be2;fill-opacity:1;stroke:none;stroke-width:0.548896;stroke-miterlimit:4;stroke-dasharray:none;stroke-opacity:1"
     id="circle831"
     cx="198.53581"
     cy="119.33761"
     rx="10.234162"
     ry="10.234161" /><ellipse
     cy="130.05914"
     cx="134.65334"
     id="circle833"
     style="fill:#648fea;fill-opacity:1;stroke:none;stroke-width:0.548896;stroke-miterlimit:4;stroke-dasharray:none;stroke-opacity:1"
     rx="10.234162"
     ry="10.234161" /><ellipse
     style="fill:#527ed9;fill-opacity:1;stroke:none;stroke-width:0.409124;stroke-miterlimit:4;stroke-dasharray:none;stroke-opacity:1"
     id="circle837"
     cx="113.52926"
     cy="138.85051"
     rx="7.6280999"
     ry="7.6280994" /><circle
     style="fill:#465dc5;fill-opacity:1;stroke:none;stroke-width:0.303236;stroke-miterlimit:4;stroke-dasharray:none;stroke-opacity:1"
     id="circle839"
     cx="228.82533"
     cy="137.21455"
     r="5.65381" /><ellipse
     style="fill:#2a53cb;fill-opacity:1;stroke:none;stroke-width:0.548896;stroke-miterlimit:4;stroke-dasharray:none;stroke-opacity:1"
     id="circle841"
     cx="163.69083"
     cy="93.873962"
     rx="10.234162"
     ry="10.234161" /><ellipse
     cy="137.95705"
     cx="202.42867"
     id="circle843"
     style="fill:#5346c5;fill-opacity:1;stroke:none;stroke-width:0.409124;stroke-miterlimit:4;stroke-dasharray:none;stroke-opacity:1"
     rx="7.6280999"
     ry="7.6280994" /><ellipse
     style="fill:#316be6;fill-opacity:1;stroke:none;stroke-width:0.409124;stroke-miterlimit:4;stroke-dasharray:none;stroke-opacity:1"
     id="circle845"
     cx="222.97829"
     cy="116.06724"
     rx="7.6280999"
     ry="7.6280994" /><circle
     style="fill:#527ed9;fill-opacity:1;stroke:none;stroke-width:0.303236;stroke-miterlimit:4;stroke-dasharray:none;stroke-opacity:1"
     id="circle847"
     cx="193.98033"
     cy="77.799347"
     r="5.65381" /><circle
     style="fill:#466fc5;fill-opacity:1;stroke:none;stroke-width:0.303236;stroke-miterlimit:4;stroke-dasharray:none;stroke-opacity:1"
     id="circle849"
     cx="189.06628"
     cy="140.78839"
     r="5.65381" /><circle
     cy="150.61647"
     cx="137.24553"
     id="circle851"
     style="fill:#466fc5;fill-opacity:1;stroke:none;stroke-width:0.303236;stroke-miterlimit:4;stroke-dasharray:none;stroke-opacity:1"
     r="5.65381" /></svg>
